<svg xmlns="http://www.w3.org/2000/svg" viewBox="0 0 1000 1000" xml:space="preserve">
  <path fill="#fff" stroke="#000" stroke-width="25" d="M678.1 754.1C624.1 792 561 810.9 496.3 810c-8.6-.1-17-.5-25.4-1.3-3.4-.3-6.8-.9-10.3-1.3-6.6-.9-13.2-1.7-19.6-3-4-.8-7.9-1.8-11.7-2.7-6.3-1.4-12.6-2.9-18.7-4.8-3-.9-5.9-2-8.8-3-7.1-2.3-14.1-4.8-21-7.7-1.5-.6-3.1-1.4-4.6-2-8-3.5-15.9-7.2-23.7-11.4-.3-.2-.7-.4-1-.5-26-14.3-49.8-32.1-70.6-52.9-.3-.3-.6-.7-1-1.1-6.5-6.5-12.6-13.3-18.5-20.4-1.2-1.5-2.4-3.2-3.7-4.7-42.4-53.1-68-120.3-68-193.3h81.7l-130.7-196L10 499.9h81.7c0 85.9 26.8 165.6 72.3 231.4.5.9.9 1.9 1.5 2.8 4.7 6.7 10 12.9 15 19.3 1.9 2.4 3.7 4.9 5.6 7.2 7.4 9.1 15.4 17.5 23.5 25.9.8.8 1.5 1.6 2.3 2.4 27.3 27.3 58.2 50.4 91.8 68.8.9.5 1.8 1.1 2.7 1.5 9.6 5.2 19.6 9.9 29.7 14.4 2.5 1.1 5 2.3 7.5 3.3 8.6 3.6 17.5 6.7 26.4 9.7 4.2 1.4 8.4 2.9 12.7 4.2 7.8 2.3 15.8 4.2 23.8 6.1 5.4 1.3 10.6 2.6 16 3.6 2.3.5 4.4 1.2 6.6 1.5 7.6 1.3 15.2 2.1 22.8 3 2.7.3 5.4.8 8.2 1.1 13.6 1.3 27.2 2.2 40.7 2.2 83 0 164-25.4 233.5-74 22.2-15.6 27.6-46.1 12-68.2-15.6-22.2-46.1-27.5-68.2-12M908.4 499.9c0-85.7-26.7-165.2-72-230.9-.6-1.1-1.1-2.3-1.8-3.3-5.7-8-11.8-15.5-17.9-23-.7-.9-1.4-1.9-2.1-2.8-41.4-50.3-93.5-89.1-152.4-114.5-1.6-.7-3.2-1.5-4.9-2.2-9.5-3.9-19.1-7.3-28.8-10.5-3.5-1.2-6.9-2.4-10.5-3.4-8.4-2.5-17-4.6-25.7-6.6-4.8-1.1-9.5-2.3-14.4-3.3-2.4-.4-4.6-1.2-7-1.6-6.5-1.1-12.9-1.6-19.4-2.5-4.5-.5-8.8-1.2-13.3-1.7-10.8-1-21.6-1.4-32.4-1.6-2 0-3.8-.3-5.8-.3-.3 0-.7.1-1 .1-82.9 0-163.7 25.1-233.1 73.7-22.2 15.5-27.6 46-12 68.2 15.5 22.2 46.1 27.6 68.2 12 53.6-37.5 116.2-56.5 180.3-55.9 9.2 0 18.3.5 27.3 1.4 2.8.3 5.5.7 8.3 1 7.4.9 14.7 2 21.9 3.4 3.2.6 6.3 1.4 9.5 2.2 7.1 1.6 14.1 3.3 21 5.4 2.2.7 4.3 1.5 6.6 2.2 7.9 2.5 15.7 5.4 23.3 8.5.8.3 1.6.7 2.3 1 45.7 19.6 85.8 49.9 117 87.7.2.2.4.5.5.7 44 53.6 70.5 122 70.5 196.6h-81.7l130.7 196L990 500l-81.6-.1z"/>
</svg>
